<svg width="74" height="20" viewBox="0 0 74 20" fill="none" xmlns="http://www.w3.org/2000/svg">
<path d="M3.95934 15L0.459336 5.396H2.43334L4.71534 12.004C4.75267 12.0973 4.79 12.2047 4.82734 12.326C4.86467 12.4473 4.902 12.564 4.93934 12.676C4.97667 12.7787 5.00934 12.872 5.03734 12.956H5.10734C5.13534 12.8813 5.16334 12.7927 5.19134 12.69C5.22867 12.5873 5.266 12.48 5.30334 12.368C5.34067 12.2467 5.378 12.13 5.41534 12.018L7.68334 5.396H9.57334L6.07334 15H3.95934ZM13.0886 15.168C12.3046 15.168 11.6513 15.0327 11.1286 14.762C10.606 14.482 10.214 14.0573 9.95265 13.488C9.69132 12.9187 9.56065 12.1953 9.56065 11.318C9.56065 10.4313 9.69132 9.708 9.95265 9.148C10.214 8.57867 10.606 8.15867 11.1286 7.888C11.6513 7.608 12.3046 7.468 13.0886 7.468C13.798 7.468 14.3906 7.60333 14.8666 7.874C15.352 8.13533 15.716 8.54133 15.9586 9.092C16.2013 9.64267 16.3226 10.3567 16.3226 11.234V11.738H11.3106C11.3293 12.1953 11.3993 12.5827 11.5206 12.9C11.642 13.208 11.8286 13.4413 12.0806 13.6C12.342 13.7493 12.6826 13.824 13.1026 13.824C13.3173 13.824 13.518 13.796 13.7046 13.74C13.8913 13.684 14.0546 13.6 14.1946 13.488C14.3346 13.3667 14.442 13.2173 14.5166 13.04C14.6006 12.8627 14.6426 12.6573 14.6426 12.424H16.3226C16.3226 12.8907 16.2386 13.2967 16.0706 13.642C15.912 13.9873 15.6833 14.272 15.3846 14.496C15.0953 14.72 14.7546 14.888 14.3626 15C13.9706 15.112 13.546 15.168 13.0886 15.168ZM11.3386 10.534H14.5446C14.5446 10.226 14.5073 9.96467 14.4326 9.75C14.3673 9.53533 14.2693 9.358 14.1386 9.218C14.0173 9.078 13.868 8.98 13.6906 8.924C13.5133 8.85867 13.3126 8.826 13.0886 8.826C12.7246 8.826 12.4166 8.88667 12.1646 9.008C11.922 9.12933 11.7353 9.316 11.6046 9.568C11.474 9.82 11.3853 10.142 11.3386 10.534ZM17.7723 15V7.636H19.2003L19.3403 8.798H19.4383C19.5316 8.56467 19.6436 8.35 19.7743 8.154C19.9143 7.94867 20.0916 7.78533 20.3063 7.664C20.521 7.53333 20.7823 7.468 21.0903 7.468C21.2396 7.468 21.375 7.482 21.4963 7.51C21.627 7.538 21.725 7.566 21.7903 7.594V9.204H21.2723C20.983 9.204 20.7263 9.246 20.5023 9.33C20.2783 9.40467 20.087 9.526 19.9283 9.694C19.779 9.862 19.667 10.072 19.5923 10.324C19.5176 10.576 19.4803 10.87 19.4803 11.206V15H17.7723ZM27.3199 15.168C26.8625 15.168 26.5032 15.0793 26.2419 14.902C25.9805 14.7153 25.7939 14.482 25.6819 14.202C25.5792 13.9127 25.5279 13.6187 25.5279 13.32V9.036H24.6459V7.636H25.5699L25.8779 5.578H27.2359V7.636H28.5099V9.036H27.2359V13.152C27.2359 13.348 27.2872 13.502 27.3899 13.614C27.4925 13.7167 27.6465 13.768 27.8519 13.768H28.5099V14.944C28.4165 14.9813 28.2999 15.014 28.1599 15.042C28.0292 15.0793 27.8892 15.1073 27.7399 15.126C27.5905 15.154 27.4505 15.168 27.3199 15.168ZM32.1142 15.168C31.4049 15.168 30.8262 14.9767 30.3782 14.594C29.9395 14.202 29.7202 13.5393 29.7202 12.606V7.636H31.4282V12.298C31.4282 12.5593 31.4562 12.7787 31.5122 12.956C31.5775 13.124 31.6662 13.264 31.7782 13.376C31.8995 13.4787 32.0442 13.5533 32.2122 13.6C32.3802 13.6467 32.5669 13.67 32.7722 13.67C33.0802 13.67 33.3555 13.5953 33.5982 13.446C33.8502 13.2967 34.0462 13.0913 34.1862 12.83C34.3355 12.5593 34.4102 12.256 34.4102 11.92V7.636H36.1182V15H34.7042L34.5642 14.02H34.4662C34.2982 14.244 34.0975 14.4447 33.8642 14.622C33.6402 14.79 33.3789 14.9207 33.0802 15.014C32.7909 15.1167 32.4689 15.168 32.1142 15.168ZM40.5003 15.168C39.903 15.168 39.385 15.0327 38.9463 14.762C38.5077 14.4913 38.167 14.0713 37.9243 13.502C37.691 12.9327 37.5743 12.2 37.5743 11.304C37.5743 10.4173 37.6957 9.694 37.9383 9.134C38.181 8.56467 38.517 8.14467 38.9463 7.874C39.3757 7.60333 39.861 7.468 40.4023 7.468C40.7383 7.468 41.0463 7.50533 41.3263 7.58C41.6063 7.65467 41.8537 7.77133 42.0683 7.93C42.283 8.07933 42.465 8.266 42.6143 8.49H42.6983V4.878H44.4063V15H42.9923L42.8523 14.02H42.7543C42.521 14.4027 42.2037 14.692 41.8023 14.888C41.4103 15.0747 40.9763 15.168 40.5003 15.168ZM41.0323 13.698C41.4243 13.698 41.7417 13.6093 41.9843 13.432C42.227 13.2547 42.4043 12.998 42.5163 12.662C42.6377 12.326 42.6983 11.9153 42.6983 11.43V11.248C42.6983 10.884 42.6657 10.5573 42.6003 10.268C42.535 9.97867 42.4323 9.736 42.2923 9.54C42.1617 9.344 41.989 9.19467 41.7743 9.092C41.569 8.98933 41.3217 8.938 41.0323 8.938C40.6123 8.938 40.2763 9.022 40.0243 9.19C39.7817 9.34867 39.6043 9.60067 39.4923 9.946C39.3897 10.282 39.3383 10.7113 39.3383 11.234V11.43C39.3383 11.9433 39.3897 12.368 39.4923 12.704C39.6043 13.04 39.7817 13.292 40.0243 13.46C40.2763 13.6187 40.6123 13.698 41.0323 13.698ZM49.4995 15.168C48.6968 15.168 48.0248 15.0327 47.4835 14.762C46.9421 14.482 46.5361 14.0573 46.2655 13.488C45.9948 12.9187 45.8595 12.1953 45.8595 11.318C45.8595 10.4313 45.9948 9.708 46.2655 9.148C46.5361 8.57867 46.9421 8.15867 47.4835 7.888C48.0248 7.608 48.6968 7.468 49.4995 7.468C50.3115 7.468 50.9835 7.608 51.5155 7.888C52.0568 8.15867 52.4628 8.57867 52.7335 9.148C53.0041 9.708 53.1395 10.4313 53.1395 11.318C53.1395 12.1953 53.0041 12.9187 52.7335 13.488C52.4628 14.0573 52.0568 14.482 51.5155 14.762C50.9835 15.0327 50.3115 15.168 49.4995 15.168ZM49.4995 13.768C49.9475 13.768 50.3068 13.684 50.5775 13.516C50.8575 13.3387 51.0581 13.0773 51.1795 12.732C51.3101 12.3773 51.3755 11.9387 51.3755 11.416V11.22C51.3755 10.6973 51.3101 10.2633 51.1795 9.918C51.0581 9.56333 50.8575 9.302 50.5775 9.134C50.3068 8.95667 49.9475 8.868 49.4995 8.868C49.0515 8.868 48.6875 8.95667 48.4075 9.134C48.1368 9.302 47.9361 9.56333 47.8055 9.918C47.6841 10.2633 47.6235 10.6973 47.6235 11.22V11.416C47.6235 11.9387 47.6841 12.3773 47.8055 12.732C47.9361 13.0773 48.1368 13.3387 48.4075 13.516C48.6875 13.684 49.0515 13.768 49.4995 13.768Z" fill="#CBD5E1"/>
<path d="M72.0306 10.5306L67.5306 15.0306C67.3897 15.1715 67.1986 15.2507 66.9994 15.2507C66.8001 15.2507 66.609 15.1715 66.4681 15.0306C66.3272 14.8897 66.2481 14.6986 66.2481 14.4994C66.2481 14.3001 66.3272 14.109 66.4681 13.9681L69.6875 10.75H60.5C60.3011 10.75 60.1103 10.671 59.9697 10.5303C59.829 10.3897 59.75 10.1989 59.75 9.99999C59.75 9.80108 59.829 9.61031 59.9697 9.46966C60.1103 9.329 60.3011 9.24999 60.5 9.24999H69.6875L66.4694 6.02999C66.3285 5.88909 66.2493 5.69799 66.2493 5.49874C66.2493 5.29948 66.3285 5.10838 66.4694 4.96749C66.6103 4.82659 66.8014 4.74744 67.0006 4.74744C67.1999 4.74744 67.391 4.82659 67.5319 4.96749L72.0319 9.46749C72.1018 9.53726 72.1573 9.62016 72.1951 9.71142C72.2329 9.80269 72.2523 9.90052 72.2522 9.99931C72.252 10.0981 72.2324 10.1959 72.1944 10.2871C72.1564 10.3782 72.1007 10.461 72.0306 10.5306Z" fill="#CBD5E1"/>
</svg>
